<?xml version="1.0" encoding="UTF-8"?>
<svg id="Layer_1" xmlns="http://www.w3.org/2000/svg" version="1.1" viewBox="0 0 32 32">
  <!-- Generator: Adobe Illustrator 30.7.0, SVG Export Plug-In . SVG Version: 2.1.4 Build 114)  -->
  <defs>
    <style>
      .st0 {
        fill: #fff;
      }

      .st1 {
        fill: none;
        stroke: #fff;
        stroke-miterlimit: 10;
      }
    </style>
  </defs>
  <!-- Full-bleed plate, matching the rect vanilla bakes into its own photo mode icons
       (Media/PhotoMode/HideUIOn.svg carries width=38 height=38 rx=6 at 0.18 alpha, scaled here
       to this 32x32 viewBox). These SVGs are applied as a CSS mask, where only alpha counts, so
       the partial alpha is what renders as the subtle square behind the glyph rather than any
       colour. Without it our buttons sit on nothing while every vanilla one has a ground. -->
  <rect width="32" height="32" rx="5" ry="5" fill="rgba(78,86,90,0.18)"/>
  <g>
    <line class="st1" x1="7.88" y1="25.3" x2="24.12" y2="25.3"/>
    <line class="st1" x1="7.3" y1="28.18" x2="24.7" y2="28.18"/>
    <path class="st1" d="M12.21,23.58h7.57c.47,0,.85.38.85.85v.88h-9.28v-.88c0-.47.38-.85.85-.85Z"/>
    <rect class="st1" x="14.26" y="18.39" width="3.48" height="5.18"/>
    <path class="st1" d="M11.94,16.67h8.12v.74c0,.54-.44.98-.98.98h-6.15c-.54,0-.98-.44-.98-.98v-.74h0Z"/>
    <rect class="st1" x="7.88" y="10.33" width="13.91" height="6.33"/>
    <path class="st1" d="M4.99,8.03h.09c1.55,0,2.81,1.26,2.81,2.81v5.83h-2.9v-8.64h0Z"/>
    <rect class="st1" x="10.2" y="12.06" width="5.22" height="2.88" rx="1.2" ry="1.2"/>
    <line class="st1" x1="16.58" y1="12.06" x2="20.64" y2="12.06"/>
    <line class="st1" x1="16.58" y1="14.94" x2="20.64" y2="14.94"/>
    <path class="st1" d="M13.67,8.32h5.24c.95,0,1.73.77,1.73,1.73h-8.7c0-.95.77-1.73,1.73-1.73Z"/>
    <path class="st1" d="M17.16,4h0c-1.61,0-2.32.7-2.32,2.3v1.73h2.32V4Z"/>
    <path class="st1" d="M17.16,5.15v-1.15h5.8c.8,0,1.45.64,1.45,1.44h0c0,.79-.65,1.44-1.45,1.44h-5.8v-1.73"/>
    <path class="st1" d="M27.2,17.67l-3.67-2.73h-1.74v-2.88h1.74l3.67-2.73c.4-.3.97-.01.97.48v7.38c0,.5-.57.78-.97.48Z"/>
    <line class="st1" x1="23.54" y1="12.06" x2="23.54" y2="14.94"/>
    <line class="st1" x1="25.86" y1="10.33" x2="25.86" y2="16.67"/>
  </g>
  <g>
    <path d="M5.57,28.83c-1.32,0-2.4-1.07-2.4-2.38s1.08-2.38,2.4-2.38,2.4,1.07,2.4,2.38-1.08,2.38-2.4,2.38ZM5.57,24.23c-1.23,0-2.24,1-2.24,2.23s1,2.23,2.24,2.23,2.24-1,2.24-2.23-1-2.23-2.24-2.23Z"/>
    <path class="st0" d="M5.57,23.58c-1.6,0-2.9,1.29-2.9,2.88s1.3,2.88,2.9,2.88,2.9-1.29,2.9-2.88-1.3-2.88-2.9-2.88h0ZM5.57,28.18c-.96,0-1.74-.77-1.74-1.73s.78-1.73,1.74-1.73,1.74.77,1.74,1.73-.78,1.73-1.74,1.73h0Z"/>
  </g>
  <g>
    <path d="M26.43,28.83c-1.32,0-2.4-1.07-2.4-2.38s1.08-2.38,2.4-2.38,2.4,1.07,2.4,2.38-1.08,2.38-2.4,2.38ZM26.43,24.23c-1.23,0-2.24,1-2.24,2.23s1,2.23,2.24,2.23,2.24-1,2.24-2.23-1-2.23-2.24-2.23Z"/>
    <path class="st0" d="M26.43,23.58c-1.6,0-2.9,1.29-2.9,2.88s1.3,2.88,2.9,2.88,2.9-1.29,2.9-2.88-1.3-2.88-2.9-2.88h0ZM26.43,28.18c-.96,0-1.74-.77-1.74-1.73s.78-1.73,1.74-1.73,1.74.77,1.74,1.73-.78,1.73-1.74,1.73h0Z"/>
  </g>
  <g>
    <path d="M5.57,27.11c-.36,0-.66-.29-.66-.65s.3-.65.66-.65.66.29.66.65-.3.65-.66.65Z"/>
    <path class="st0" d="M5.57,26.3c.09,0,.16.07.16.15s-.07.15-.16.15-.16-.07-.16-.15.07-.15.16-.15h0ZM5.57,25.3c-.64,0-1.16.52-1.16,1.15s.52,1.15,1.16,1.15,1.16-.52,1.16-1.15-.52-1.15-1.16-1.15h0Z"/>
  </g>
  <g>
    <path d="M26.43,27.11c-.36,0-.66-.29-.66-.65s.3-.65.66-.65.66.29.66.65-.3.65-.66.65Z"/>
    <path class="st0" d="M26.43,26.3c.09,0,.16.07.16.15s-.07.15-.16.15-.16-.07-.16-.15.07-.15.16-.15h0ZM26.43,25.3c-.64,0-1.16.52-1.16,1.15s.52,1.15,1.16,1.15,1.16-.52,1.16-1.15-.52-1.15-1.16-1.15h0Z"/>
  </g>
</svg>